<svg xmlns="http://www.w3.org/2000/svg" width="26" height="26" fill="none" viewBox="0 0 26 26">
	<path fill="currentColor" fill-rule="evenodd" d="M9.347 25.601c-1.06 0-2.417-.56-3.155-1.31L1.31 19.41C.56 18.66 0 17.302 0 16.254V9.347c0-1.06.56-2.417 1.31-3.155L6.192 1.31C6.942.56 8.3 0 9.347 0h6.907c1.06 0 2.417.56 3.155 1.31l4.883 4.882c.75.75 1.31 2.108 1.31 3.155v6.907c0 1.06-.56 2.417-1.31 3.155l-4.883 4.883c-.75.75-2.095 1.31-3.155 1.31H9.347ZM7.454 2.572 2.572 7.454c-.405.417-.786 1.31-.786 1.893v6.907c0 .583.37 1.488.786 1.893l4.882 4.882c.417.405 1.31.786 1.893.786h6.907c.583 0 1.488-.369 1.893-.786l4.882-4.882c.405-.417.786-1.31.786-1.893V9.347c0-.583-.369-1.488-.786-1.893l-4.882-4.882c-.416-.405-1.31-.786-1.893-.786H9.347c-.583 0-1.488.37-1.893.786Z" clip-rule="evenodd" />
	<path fill="currentColor" d="M8.001 17.6a.898.898 0 0 1 0-1.263l8.336-8.335a.898.898 0 0 1 1.262 0 .898.898 0 0 1 0 1.262l-8.336 8.335a.883.883 0 0 1-.63.262A.883.883 0 0 1 8 17.6Z" />
	<path fill="currentColor" d="M16.337 17.6 8 9.263a.898.898 0 0 1 0-1.262.898.898 0 0 1 1.262 0l8.336 8.335a.898.898 0 0 1 0 1.262.883.883 0 0 1-.631.262.883.883 0 0 1-.631-.262Z" />
</svg>
