<svg xmlns="http://www.w3.org/2000/svg" width="26" height="26" fill="none" viewBox="0 0 26 26">
	<path fill="currentColor" fill-rule="evenodd" d="M0 12.8C0 5.74 5.74 0 12.8 0c7.062 0 12.801 5.74 12.801 12.8 0 7.062-5.74 12.801-12.8 12.801C5.739 25.601 0 19.861 0 12.801Zm1.786 0c0 6.074 4.942 11.015 11.015 11.015s11.014-4.941 11.014-11.014c0-6.073-4.941-11.015-11.014-11.015-6.073 0-11.015 4.942-11.015 11.015Z" clip-rule="evenodd" />
	<path fill="currentColor" d="M11.908 13.991V8.038a.9.9 0 0 1 .893-.893.9.9 0 0 1 .893.893v5.953a.9.9 0 0 1-.893.893.9.9 0 0 1-.893-.893Zm.44 4.669a1.376 1.376 0 0 1-.393-.25 1.23 1.23 0 0 1-.25-.394 1.184 1.184 0 0 1-.095-.452c0-.155.036-.31.095-.453.06-.143.143-.274.25-.393a1.4 1.4 0 0 1 .393-.25c.286-.119.62-.119.905 0 .143.06.274.143.393.25.107.12.19.25.25.393.06.143.095.298.095.453 0 .154-.035.31-.095.452a1.23 1.23 0 0 1-.25.393c-.119.107-.25.19-.393.25-.143.06-.297.096-.452.096a1.18 1.18 0 0 1-.453-.096Z" />
</svg>
