<svg xmlns="http://www.w3.org/2000/svg" width="16" height="16" viewBox="0 0 16 16" fill="none">
	<path d="M0.833496 6.00004V4.33337C0.833496 2.40671 2.40683 0.833374 4.3335 0.833374H6.00016C6.2735 0.833374 6.50016 1.06004 6.50016 1.33337C6.50016 1.60671 6.2735 1.83337 6.00016 1.83337H4.3335C2.9535 1.83337 1.8335 2.95337 1.8335 4.33337V6.00004C1.8335 6.27337 1.60683 6.50004 1.3335 6.50004C1.06016 6.50004 0.833496 6.27337 0.833496 6.00004Z" fill="currentColor" />
	<path d="M14.1667 6.00004V4.33337C14.1667 2.95337 13.0467 1.83337 11.6667 1.83337H10C9.72667 1.83337 9.5 1.60671 9.5 1.33337C9.5 1.06004 9.72667 0.833374 10 0.833374H11.6667C13.5933 0.833374 15.1667 2.40671 15.1667 4.33337V6.00004C15.1667 6.27337 14.94 6.50004 14.6667 6.50004C14.3933 6.50004 14.1667 6.27337 14.1667 6.00004Z" fill="currentColor" />
	<path d="M10.6665 15.1666C10.3932 15.1666 10.1665 14.94 10.1665 14.6666C10.1665 14.3933 10.3932 14.1666 10.6665 14.1666H11.6665C13.0465 14.1666 14.1665 13.0466 14.1665 11.6666V10.6666C14.1665 10.3933 14.3932 10.1666 14.6665 10.1666C14.9398 10.1666 15.1665 10.3933 15.1665 10.6666V11.6666C15.1665 13.5933 13.5932 15.1666 11.6665 15.1666H10.6665Z" fill="currentColor" />
	<path d="M4.3335 15.1667C2.40683 15.1667 0.833496 13.5933 0.833496 11.6667V10C0.833496 9.72667 1.06016 9.5 1.3335 9.5C1.60683 9.5 1.8335 9.72667 1.8335 10V11.6667C1.8335 13.0467 2.9535 14.1667 4.3335 14.1667H6.00016C6.2735 14.1667 6.50016 14.3933 6.50016 14.6667C6.50016 14.94 6.2735 15.1667 6.00016 15.1667H4.3335Z" fill="currentColor" />
	<path d="M11.5 9.33329V8.49996H4.5V9.33329C4.5 9.60663 4.27333 9.83329 4 9.83329C3.72667 9.83329 3.5 9.60663 3.5 9.33329V6.66663C3.5 6.39329 3.72667 6.16663 4 6.16663C4.27333 6.16663 4.5 6.39329 4.5 6.66663V7.49996H11.5V6.66663C11.5 6.39329 11.7267 6.16663 12 6.16663C12.2733 6.16663 12.5 6.39329 12.5 6.66663V9.33329C12.5 9.60663 12.2733 9.83329 12 9.83329C11.7267 9.83329 11.5 9.60663 11.5 9.33329Z" fill="currentColor" />
	<path d="M6.6665 12.5C6.39317 12.5 6.1665 12.2733 6.1665 12C6.1665 11.7267 6.39317 11.5 6.6665 11.5H7.49984V4.5H6.6665C6.39317 4.5 6.1665 4.27333 6.1665 4C6.1665 3.72667 6.39317 3.5 6.6665 3.5H9.33317C9.6065 3.5 9.83317 3.72667 9.83317 4C9.83317 4.27333 9.6065 4.5 9.33317 4.5H8.49984V11.5H9.33317C9.6065 11.5 9.83317 11.7267 9.83317 12C9.83317 12.2733 9.6065 12.5 9.33317 12.5H6.6665Z" fill="currentColor" />
	<path opacity="0.01" fill-rule="evenodd" clip-rule="evenodd" d="M16 0V16H0V0H16Z" fill="currentColor" />
</svg>
