<svg xmlns="http://www.w3.org/2000/svg" width="26" height="25" fill="none" viewBox="0 0 26 25">
  <path fill="currentColor" d="M11.915 14.48V8.526a.9.9 0 0 1 .893-.893.9.9 0 0 1 .893.893v5.954a.9.9 0 0 1-.893.893.9.9 0 0 1-.893-.893Zm.655 4.74a.754.754 0 0 1-.215-.072.902.902 0 0 1-.214-.107l-.179-.143a1.253 1.253 0 0 1-.345-.846c0-.31.13-.62.345-.845l.179-.143a.907.907 0 0 1 .214-.107.757.757 0 0 1 .214-.072 1.02 1.02 0 0 1 .465 0 .72.72 0 0 1 .226.072c.072.023.143.06.215.107l.178.143c.214.226.345.535.345.845 0 .31-.13.62-.345.846l-.178.143a.902.902 0 0 1-.215.107.717.717 0 0 1-.226.071 1.46 1.46 0 0 1-.226.024c-.072 0-.155-.012-.239-.024Z"/>
  <path fill="currentColor" fill-rule="evenodd" d="M5.592 24.196c-2.322 0-4.096-.845-5.001-2.37-.893-1.524-.774-3.488.357-5.524l7.216-12.98C9.355 1.18 10.998 0 12.808 0s3.453 1.179 4.644 3.322l7.216 12.991c1.131 2.037 1.262 3.99.357 5.526-.904 1.512-2.679 2.357-5 2.357H5.591ZM9.724 4.191 2.52 17.183c-.81 1.452-.94 2.786-.381 3.75.56.965 1.798 1.489 3.465 1.489h14.432c1.667 0 2.894-.524 3.465-1.488.572-.965.429-2.287-.38-3.751L15.891 4.19c-.869-1.548-1.964-2.405-3.084-2.405s-2.215.857-3.084 2.405Z" clip-rule="evenodd"/>
</svg>
